<svg id="svg" xmlns="http://www.w3.org/2000/svg" xmlns:xlink="http://www.w3.org/1999/xlink" width="400" height="400" viewBox="0, 0, 400,400" version="1.1"><g id="svgg"><path id="path0" d="M190.691 2.400 C 190.131 2.840,189.517 3.200,189.326 3.200 C 189.134 3.200,188.670 3.560,188.293 4.000 C 187.916 4.440,187.306 4.800,186.937 4.800 C 186.568 4.800,186.372 4.905,186.500 5.033 C 186.628 5.162,186.373 5.627,185.933 6.067 C 185.493 6.507,185.031 6.765,184.907 6.640 C 184.782 6.515,184.265 6.860,183.759 7.407 C 183.253 7.953,182.690 8.400,182.508 8.400 C 182.326 8.400,181.870 8.760,181.493 9.200 C 181.116 9.640,180.536 10.000,180.204 10.000 C 179.872 10.000,179.600 10.184,179.600 10.410 C 179.600 10.635,179.150 10.991,178.600 11.200 C 178.050 11.409,177.600 11.753,177.600 11.963 C 177.600 12.174,177.202 12.472,176.715 12.627 C 176.229 12.781,175.488 13.343,175.070 13.875 C 174.651 14.407,174.212 14.746,174.094 14.628 C 173.976 14.510,173.485 14.839,173.002 15.360 C 172.520 15.880,171.734 16.430,171.257 16.582 C 170.779 16.734,170.481 17.007,170.594 17.190 C 170.707 17.373,170.259 17.710,169.600 17.940 C 168.940 18.170,168.400 18.544,168.400 18.772 C 168.400 18.999,167.963 19.294,167.429 19.428 C 166.895 19.563,166.361 19.926,166.241 20.236 C 166.122 20.546,165.831 20.800,165.593 20.800 C 165.356 20.800,164.765 21.223,164.281 21.739 C 163.796 22.256,163.208 22.612,162.972 22.530 C 162.737 22.448,162.302 22.836,162.005 23.391 C 161.708 23.946,161.223 24.400,160.928 24.400 C 160.634 24.400,160.084 24.760,159.707 25.200 C 159.330 25.640,158.832 26.000,158.600 26.000 C 158.368 26.000,157.870 26.360,157.493 26.800 C 157.116 27.240,156.536 27.600,156.204 27.600 C 155.872 27.600,155.600 27.786,155.600 28.013 C 155.600 28.239,155.289 28.544,154.909 28.690 C 154.529 28.836,153.836 29.368,153.369 29.871 C 152.902 30.375,152.421 30.688,152.301 30.567 C 152.180 30.447,151.478 30.905,150.741 31.585 C 148.355 33.787,148.212 33.895,147.300 34.176 C 146.805 34.329,146.400 34.627,146.400 34.840 C 146.400 35.052,146.089 35.344,145.709 35.490 C 145.329 35.636,144.633 36.171,144.163 36.678 C 143.693 37.185,143.113 37.600,142.874 37.600 C 142.635 37.600,142.264 37.914,142.050 38.297 C 141.835 38.680,141.538 38.871,141.388 38.721 C 141.238 38.572,140.709 38.888,140.212 39.425 C 139.715 39.961,139.110 40.400,138.868 40.400 C 138.626 40.400,138.235 40.760,138.000 41.200 C 137.765 41.640,137.306 42.000,136.982 42.000 C 136.658 42.000,136.084 42.360,135.707 42.800 C 135.330 43.240,134.874 43.600,134.692 43.600 C 134.510 43.600,133.965 44.018,133.481 44.530 C 132.996 45.041,132.285 45.576,131.900 45.717 C 131.515 45.859,131.200 46.161,131.200 46.387 C 131.200 46.614,130.964 46.800,130.675 46.800 C 130.387 46.800,129.764 47.160,129.292 47.600 C 128.820 48.040,128.286 48.400,128.106 48.400 C 127.925 48.400,127.480 48.715,127.117 49.100 C 126.047 50.234,125.201 50.855,125.188 50.516 C 125.181 50.342,124.992 50.515,124.768 50.900 C 124.544 51.285,124.165 51.600,123.926 51.600 C 123.687 51.600,123.107 52.015,122.637 52.522 C 122.167 53.029,121.471 53.564,121.091 53.710 C 120.711 53.856,120.400 54.161,120.400 54.387 C 120.400 54.614,120.164 54.800,119.875 54.800 C 119.587 54.800,118.964 55.160,118.492 55.600 C 118.020 56.040,117.506 56.400,117.350 56.400 C 117.195 56.400,116.782 56.669,116.434 56.998 C 115.244 58.121,113.285 59.600,112.988 59.600 C 112.825 59.600,112.275 60.050,111.765 60.600 C 111.255 61.150,110.644 61.600,110.407 61.600 C 110.169 61.600,109.872 61.869,109.746 62.198 C 109.619 62.526,109.355 62.696,109.158 62.574 C 108.961 62.452,108.800 62.543,108.800 62.776 C 108.800 63.009,108.524 63.200,108.187 63.200 C 107.851 63.200,107.471 63.470,107.345 63.800 C 107.218 64.130,106.904 64.400,106.646 64.400 C 106.389 64.400,105.870 64.760,105.493 65.200 C 105.116 65.640,104.579 66.000,104.300 66.000 C 104.021 66.000,103.568 66.360,103.293 66.800 C 103.018 67.240,102.590 67.600,102.342 67.600 C 102.095 67.600,101.475 68.050,100.965 68.600 C 100.455 69.150,99.878 69.600,99.681 69.600 C 99.485 69.600,98.998 69.960,98.600 70.400 C 98.202 70.840,97.628 71.200,97.325 71.200 C 97.023 71.200,96.678 71.454,96.559 71.764 C 96.439 72.074,95.898 72.439,95.355 72.576 C 94.812 72.712,94.464 72.981,94.583 73.173 C 94.702 73.365,94.259 73.710,93.600 73.940 C 92.940 74.170,92.400 74.544,92.400 74.772 C 92.400 74.999,91.973 75.292,91.451 75.423 C 90.929 75.554,90.276 76.084,90.000 76.600 C 89.724 77.116,89.071 77.646,88.549 77.777 C 88.027 77.908,87.600 78.196,87.600 78.418 C 87.600 78.639,87.150 78.991,86.600 79.200 C 86.050 79.409,85.600 79.745,85.600 79.947 C 85.600 80.148,85.150 80.426,84.600 80.564 C 84.050 80.702,83.600 80.996,83.600 81.218 C 83.600 81.439,83.150 81.791,82.600 82.000 C 82.050 82.209,81.600 82.553,81.600 82.763 C 81.600 82.974,81.222 83.266,80.761 83.413 C 79.887 83.690,78.175 85.188,78.700 85.216 C 78.865 85.224,78.415 85.486,77.700 85.796 C 76.985 86.107,76.400 86.550,76.400 86.781 C 76.400 87.011,76.128 87.200,75.796 87.200 C 75.464 87.200,74.884 87.560,74.507 88.000 C 74.130 88.440,73.592 88.800,73.311 88.800 C 73.030 88.800,72.800 88.989,72.800 89.221 C 72.800 89.452,72.274 89.825,71.632 90.049 C 70.990 90.273,70.365 90.713,70.245 91.028 C 70.124 91.343,69.831 91.600,69.593 91.600 C 69.356 91.600,68.745 92.050,68.235 92.600 C 67.725 93.150,67.105 93.600,66.858 93.600 C 66.610 93.600,66.182 93.960,65.907 94.400 C 65.632 94.840,65.179 95.200,64.900 95.200 C 64.621 95.200,64.084 95.560,63.707 96.000 C 63.330 96.440,62.792 96.800,62.511 96.800 C 62.230 96.800,62.000 96.989,62.000 97.221 C 62.000 97.452,61.474 97.825,60.832 98.049 C 60.190 98.273,59.565 98.713,59.445 99.028 C 59.324 99.343,59.039 99.600,58.813 99.600 C 56.740 99.600,56.727 99.739,56.782 121.521 C 56.810 132.660,56.984 141.869,57.169 141.987 C 57.354 142.104,57.639 159.615,57.803 180.900 C 57.969 202.543,58.254 219.600,58.450 219.600 C 58.642 219.600,58.800 222.840,58.800 226.800 C 58.800 230.760,58.935 233.997,59.100 233.994 C 59.774 233.980,60.352 233.331,60.612 232.296 C 60.763 231.693,61.014 231.200,61.169 231.200 C 61.324 231.200,61.698 230.570,62.000 229.800 C 62.302 229.030,62.696 228.400,62.875 228.400 C 63.054 228.400,63.200 228.158,63.200 227.861 C 63.200 227.565,63.560 226.907,64.000 226.400 C 64.440 225.893,64.800 225.235,64.800 224.939 C 64.800 224.642,64.944 224.400,65.120 224.400 C 65.295 224.400,65.667 223.770,65.946 223.000 C 66.224 222.230,66.601 221.600,66.783 221.600 C 66.964 221.600,67.232 221.128,67.376 220.552 C 67.521 219.975,67.856 219.261,68.120 218.966 C 69.273 217.674,69.514 217.273,69.974 215.877 C 70.243 215.065,70.625 214.400,70.823 214.400 C 71.022 214.400,71.298 213.950,71.436 213.400 C 71.574 212.850,71.828 212.400,72.000 212.400 C 72.172 212.400,72.426 211.950,72.564 211.400 C 72.702 210.850,72.978 210.400,73.177 210.400 C 73.375 210.400,73.757 209.735,74.026 208.923 C 74.482 207.538,74.720 207.140,75.847 205.867 C 76.093 205.590,76.420 204.966,76.574 204.481 C 76.728 203.997,76.993 203.600,77.163 203.600 C 77.333 203.600,77.710 202.880,78.000 202.000 C 78.290 201.120,78.667 200.400,78.837 200.400 C 79.007 200.400,79.272 200.003,79.426 199.519 C 79.580 199.034,79.952 198.391,80.253 198.090 C 80.554 197.789,80.800 197.286,80.800 196.971 C 80.800 196.657,80.966 196.400,81.169 196.400 C 81.372 196.400,81.746 195.770,82.000 195.000 C 82.254 194.230,82.609 193.600,82.788 193.600 C 82.967 193.600,83.226 193.150,83.364 192.600 C 83.502 192.050,83.792 191.600,84.008 191.600 C 84.223 191.600,84.400 191.343,84.400 191.029 C 84.400 190.714,84.633 190.219,84.917 189.929 C 85.201 189.638,85.689 188.770,86.000 188.000 C 86.311 187.230,86.754 186.381,86.983 186.114 C 88.195 184.701,88.388 184.385,88.627 183.434 C 88.770 182.865,89.036 182.400,89.217 182.400 C 89.399 182.400,89.776 181.770,90.054 181.000 C 90.333 180.230,90.705 179.600,90.880 179.600 C 91.056 179.600,91.200 179.358,91.200 179.061 C 91.200 178.765,91.560 178.107,92.000 177.600 C 92.440 177.093,92.800 176.435,92.800 176.139 C 92.800 175.842,92.944 175.600,93.120 175.600 C 93.295 175.600,93.667 174.970,93.946 174.200 C 94.224 173.430,94.601 172.800,94.783 172.800 C 94.964 172.800,95.232 172.328,95.376 171.752 C 95.521 171.175,95.856 170.461,96.120 170.166 C 97.330 168.811,97.585 168.400,97.835 167.402 C 97.982 166.815,98.339 166.245,98.627 166.134 C 98.915 166.024,99.266 165.408,99.407 164.767 C 99.548 164.125,99.829 163.600,100.032 163.600 C 100.234 163.600,100.400 163.324,100.400 162.987 C 100.400 162.651,100.650 162.279,100.955 162.162 C 101.261 162.045,101.731 161.162,102.000 160.200 C 102.269 159.238,102.739 158.355,103.045 158.238 C 103.350 158.121,103.600 157.749,103.600 157.413 C 103.600 157.076,103.766 156.800,103.968 156.800 C 104.171 156.800,104.452 156.275,104.593 155.633 C 104.734 154.992,105.091 154.374,105.387 154.260 C 105.683 154.147,106.046 153.502,106.194 152.827 C 106.342 152.152,106.629 151.600,106.832 151.600 C 107.034 151.600,107.200 151.324,107.200 150.987 C 107.200 150.651,107.459 150.276,107.776 150.154 C 108.092 150.033,108.463 149.423,108.600 148.800 C 108.737 148.177,109.091 147.574,109.387 147.460 C 109.683 147.347,110.046 146.702,110.194 146.027 C 110.342 145.352,110.629 144.800,110.832 144.800 C 111.034 144.800,111.200 144.524,111.200 144.187 C 111.200 143.851,111.459 143.476,111.776 143.354 C 112.092 143.233,112.466 142.608,112.607 141.967 C 112.748 141.325,112.996 140.800,113.157 140.800 C 113.319 140.800,113.698 140.170,114.000 139.400 C 114.302 138.630,114.681 138.000,114.843 138.000 C 115.004 138.000,115.252 137.475,115.393 136.833 C 115.534 136.192,115.908 135.567,116.224 135.446 C 116.541 135.324,116.800 134.949,116.800 134.613 C 116.800 134.276,116.966 134.000,117.168 134.000 C 117.371 134.000,117.658 133.448,117.806 132.773 C 117.954 132.098,118.317 131.453,118.613 131.340 C 118.909 131.226,119.263 130.623,119.400 130.000 C 119.537 129.377,119.908 128.767,120.224 128.646 C 120.541 128.524,120.800 128.149,120.800 127.813 C 120.800 127.476,120.966 127.200,121.168 127.200 C 121.371 127.200,121.658 126.648,121.806 125.973 C 121.954 125.298,122.317 124.653,122.613 124.540 C 122.909 124.426,123.266 123.808,123.407 123.167 C 123.548 122.525,123.829 122.000,124.032 122.000 C 124.234 122.000,124.400 121.724,124.400 121.387 C 124.400 121.051,124.650 120.679,124.955 120.562 C 125.261 120.445,125.731 119.562,126.000 118.600 C 126.269 117.638,126.739 116.755,127.045 116.638 C 127.350 116.521,127.600 116.149,127.600 115.813 C 127.600 115.476,127.766 115.200,127.968 115.200 C 128.171 115.200,128.452 114.675,128.593 114.033 C 128.734 113.392,129.091 112.774,129.387 112.660 C 129.683 112.547,130.043 111.917,130.187 111.260 C 130.331 110.604,130.708 109.967,131.024 109.846 C 131.341 109.724,131.600 109.349,131.600 109.013 C 131.600 108.676,131.766 108.400,131.968 108.400 C 132.171 108.400,132.452 107.875,132.593 107.233 C 132.734 106.592,133.091 105.974,133.387 105.860 C 133.683 105.747,134.046 105.102,134.194 104.427 C 134.342 103.752,134.629 103.200,134.832 103.200 C 135.034 103.200,135.200 102.924,135.200 102.587 C 135.200 102.251,135.459 101.876,135.776 101.754 C 136.092 101.633,136.466 101.008,136.607 100.367 C 136.748 99.725,136.996 99.200,137.157 99.200 C 137.319 99.200,137.698 98.570,138.000 97.800 C 138.302 97.030,138.681 96.400,138.843 96.400 C 139.004 96.400,139.252 95.875,139.393 95.233 C 139.534 94.592,139.908 93.967,140.224 93.846 C 140.541 93.724,140.800 93.349,140.800 93.013 C 140.800 92.676,140.944 92.400,141.120 92.400 C 141.295 92.400,141.667 91.770,141.946 91.000 C 142.224 90.230,142.601 89.600,142.783 89.600 C 142.964 89.600,143.232 89.128,143.376 88.552 C 143.521 87.975,143.856 87.261,144.120 86.966 C 145.273 85.674,145.514 85.273,145.974 83.877 C 146.243 83.065,146.625 82.400,146.823 82.400 C 147.022 82.400,147.298 81.950,147.436 81.400 C 147.574 80.850,147.828 80.400,148.000 80.400 C 148.172 80.400,148.426 79.950,148.564 79.400 C 148.702 78.850,148.978 78.400,149.177 78.400 C 149.375 78.400,149.757 77.735,150.026 76.923 C 150.482 75.538,150.720 75.140,151.847 73.867 C 152.093 73.590,152.420 72.966,152.574 72.481 C 152.728 71.997,152.993 71.600,153.163 71.600 C 153.333 71.600,153.710 70.880,154.000 70.000 C 154.290 69.120,154.667 68.400,154.837 68.400 C 155.007 68.400,155.272 68.003,155.426 67.519 C 155.580 67.034,155.952 66.391,156.253 66.090 C 156.554 65.789,156.800 65.286,156.800 64.971 C 156.800 64.657,156.966 64.400,157.169 64.400 C 157.372 64.400,157.746 63.770,158.000 63.000 C 158.254 62.230,158.609 61.600,158.788 61.600 C 158.967 61.600,159.226 61.150,159.364 60.600 C 159.502 60.050,159.792 59.600,160.008 59.600 C 160.223 59.600,160.400 59.343,160.400 59.029 C 160.400 58.714,160.633 58.219,160.917 57.929 C 161.201 57.638,161.689 56.770,162.000 56.000 C 162.311 55.230,162.754 54.381,162.983 54.114 C 164.195 52.701,164.388 52.385,164.627 51.434 C 164.770 50.865,165.036 50.400,165.217 50.400 C 165.399 50.400,165.776 49.770,166.054 49.000 C 166.333 48.230,166.705 47.600,166.880 47.600 C 167.056 47.600,167.200 47.358,167.200 47.061 C 167.200 46.765,167.560 46.107,168.000 45.600 C 168.440 45.093,168.800 44.435,168.800 44.139 C 168.800 43.842,168.944 43.600,169.120 43.600 C 169.295 43.600,169.667 42.970,169.946 42.200 C 170.224 41.430,170.601 40.800,170.783 40.800 C 170.964 40.800,171.232 40.328,171.376 39.752 C 171.521 39.175,171.856 38.461,172.120 38.166 C 173.330 36.811,173.585 36.400,173.835 35.402 C 173.982 34.815,174.339 34.245,174.627 34.134 C 174.915 34.024,175.266 33.408,175.407 32.767 C 175.548 32.125,175.829 31.600,176.032 31.600 C 176.234 31.600,176.400 31.324,176.400 30.987 C 176.400 30.651,176.650 30.279,176.955 30.162 C 177.261 30.045,177.731 29.162,178.000 28.200 C 178.269 27.238,178.739 26.355,179.045 26.238 C 179.350 26.121,179.600 25.749,179.600 25.413 C 179.600 25.076,179.766 24.800,179.968 24.800 C 180.171 24.800,180.452 24.275,180.593 23.633 C 180.734 22.992,181.091 22.374,181.387 22.260 C 181.683 22.147,182.046 21.502,182.194 20.827 C 182.342 20.152,182.629 19.600,182.832 19.600 C 183.034 19.600,183.200 19.324,183.200 18.987 C 183.200 18.651,183.459 18.276,183.776 18.154 C 184.092 18.033,184.463 17.423,184.600 16.800 C 184.737 16.177,185.091 15.574,185.387 15.460 C 185.683 15.347,186.046 14.702,186.194 14.027 C 186.342 13.352,186.629 12.800,186.832 12.800 C 187.034 12.800,187.200 12.524,187.200 12.187 C 187.200 11.851,187.459 11.476,187.776 11.354 C 188.092 11.233,188.466 10.608,188.607 9.967 C 188.748 9.325,188.996 8.800,189.157 8.800 C 189.319 8.800,189.698 8.170,190.000 7.400 C 190.302 6.630,190.681 6.000,190.843 6.000 C 191.004 6.000,191.252 5.475,191.393 4.833 C 191.534 4.192,191.908 3.567,192.224 3.446 C 192.957 3.165,192.982 1.600,192.254 1.600 C 191.954 1.600,191.250 1.960,190.691 2.400 M206.571 2.400 C 206.571 2.840,206.713 3.200,206.886 3.200 C 207.059 3.200,207.200 3.476,207.200 3.813 C 207.200 4.149,207.459 4.524,207.776 4.646 C 208.092 4.767,208.463 5.377,208.600 6.000 C 208.737 6.623,209.108 7.233,209.424 7.354 C 209.741 7.476,210.000 7.851,210.000 8.187 C 210.000 8.524,210.166 8.800,210.368 8.800 C 210.571 8.800,210.858 9.352,211.006 10.027 C 211.154 10.702,211.517 11.347,211.813 11.460 C 212.109 11.574,212.463 12.177,212.600 12.800 C 212.737 13.423,213.108 14.033,213.424 14.154 C 213.741 14.276,214.000 14.651,214.000 14.987 C 214.000 15.324,214.166 15.600,214.368 15.600 C 214.571 15.600,214.858 16.152,215.006 16.827 C 215.154 17.502,215.517 18.147,215.813 18.260 C 216.109 18.374,216.466 18.992,216.607 19.633 C 216.748 20.275,217.029 20.800,217.232 20.800 C 217.434 20.800,217.600 21.076,217.600 21.413 C 217.600 21.749,217.880 22.133,218.223 22.264 C 218.566 22.396,218.751 22.750,218.636 23.052 C 218.520 23.353,218.599 23.600,218.813 23.600 C 219.026 23.600,219.200 23.842,219.200 24.139 C 219.200 24.435,219.560 25.093,220.000 25.600 C 220.440 26.107,220.800 26.765,220.800 27.061 C 220.800 27.358,220.960 27.600,221.157 27.600 C 221.353 27.600,221.626 28.050,221.764 28.600 C 221.902 29.150,222.202 29.600,222.431 29.600 C 222.660 29.600,222.736 29.780,222.600 30.000 C 222.464 30.220,222.543 30.400,222.776 30.400 C 223.009 30.400,223.200 30.657,223.200 30.971 C 223.200 31.286,223.446 31.789,223.747 32.090 C 224.048 32.391,224.420 33.034,224.574 33.519 C 224.728 34.003,225.002 34.400,225.184 34.400 C 225.365 34.400,225.626 34.850,225.764 35.400 C 225.902 35.950,226.202 36.400,226.431 36.400 C 226.660 36.400,226.735 36.581,226.598 36.803 C 226.461 37.025,226.585 37.469,226.874 37.789 C 228.035 39.077,228.315 39.501,228.604 40.412 C 228.770 40.935,229.107 41.590,229.353 41.867 C 230.472 43.131,230.650 43.449,230.497 43.909 C 230.407 44.179,230.528 44.400,230.767 44.400 C 231.005 44.400,231.200 44.676,231.200 45.013 C 231.200 45.349,231.459 45.724,231.776 45.846 C 232.092 45.967,232.466 46.592,232.607 47.233 C 232.748 47.875,233.029 48.400,233.232 48.400 C 233.434 48.400,233.600 48.676,233.600 49.013 C 233.600 49.349,233.880 49.733,234.223 49.864 C 234.566 49.996,234.751 50.350,234.636 50.652 C 234.520 50.953,234.585 51.200,234.781 51.200 C 234.976 51.200,235.252 51.725,235.393 52.367 C 235.534 53.008,235.908 53.633,236.224 53.754 C 236.541 53.876,236.800 54.251,236.800 54.587 C 236.800 54.924,236.980 55.200,237.200 55.200 C 237.420 55.200,237.600 55.476,237.600 55.813 C 237.600 56.149,237.850 56.521,238.155 56.638 C 238.461 56.755,238.931 57.638,239.200 58.600 C 239.469 59.562,239.939 60.445,240.245 60.562 C 240.550 60.679,240.800 61.051,240.800 61.387 C 240.800 61.724,240.980 62.000,241.200 62.000 C 241.420 62.000,241.600 62.276,241.600 62.613 C 241.600 62.949,241.850 63.321,242.155 63.438 C 242.461 63.555,242.931 64.438,243.200 65.400 C 243.469 66.362,243.939 67.245,244.245 67.362 C 244.550 67.479,244.800 67.851,244.800 68.187 C 244.800 68.524,244.980 68.800,245.200 68.800 C 245.420 68.800,245.600 69.076,245.600 69.413 C 245.600 69.749,245.880 70.133,246.223 70.264 C 246.566 70.396,246.751 70.750,246.636 71.052 C 246.520 71.353,246.585 71.600,246.781 71.600 C 246.976 71.600,247.252 72.125,247.393 72.767 C 247.534 73.408,247.908 74.033,248.224 74.154 C 248.541 74.276,248.800 74.651,248.800 74.987 C 248.800 75.324,248.966 75.600,249.168 75.600 C 249.371 75.600,249.658 76.152,249.806 76.827 C 249.954 77.502,250.312 78.145,250.602 78.256 C 250.891 78.367,251.243 78.917,251.384 79.477 C 251.524 80.038,251.856 80.739,252.120 81.034 C 253.273 82.326,253.514 82.727,253.974 84.123 C 254.243 84.935,254.616 85.600,254.804 85.600 C 254.992 85.600,255.272 85.997,255.426 86.481 C 255.580 86.966,255.952 87.609,256.253 87.910 C 256.554 88.211,256.800 88.714,256.800 89.029 C 256.800 89.343,256.966 89.600,257.169 89.600 C 257.372 89.600,257.746 90.230,258.000 91.000 C 258.254 91.770,258.628 92.400,258.831 92.400 C 259.034 92.400,259.200 92.642,259.200 92.939 C 259.200 93.235,259.560 93.893,260.000 94.400 C 260.440 94.907,260.800 95.565,260.800 95.861 C 260.800 96.158,260.960 96.400,261.157 96.400 C 261.353 96.400,261.626 96.850,261.764 97.400 C 261.902 97.950,262.202 98.400,262.431 98.400 C 262.660 98.400,262.736 98.580,262.600 98.800 C 262.464 99.020,262.524 99.200,262.733 99.200 C 262.942 99.200,263.232 99.672,263.376 100.248 C 263.521 100.825,263.856 101.539,264.120 101.834 C 265.324 103.183,265.584 103.596,265.820 104.537 C 265.959 105.090,266.309 105.633,266.598 105.744 C 266.888 105.855,267.246 106.498,267.394 107.173 C 267.542 107.848,267.829 108.400,268.032 108.400 C 268.234 108.400,268.400 108.676,268.400 109.013 C 268.400 109.349,268.659 109.724,268.976 109.846 C 269.292 109.967,269.663 110.577,269.800 111.200 C 269.937 111.823,270.291 112.426,270.587 112.540 C 270.883 112.653,271.246 113.298,271.394 113.973 C 271.542 114.648,271.829 115.200,272.032 115.200 C 272.234 115.200,272.400 115.476,272.400 115.813 C 272.400 116.149,272.659 116.524,272.976 116.646 C 273.292 116.767,273.669 117.404,273.813 118.060 C 273.957 118.717,274.317 119.347,274.613 119.460 C 274.909 119.574,275.266 120.192,275.407 120.833 C 275.548 121.475,275.829 122.000,276.032 122.000 C 276.234 122.000,276.400 122.276,276.400 122.613 C 276.400 122.949,276.659 123.324,276.976 123.446 C 277.292 123.567,277.666 124.192,277.807 124.833 C 277.948 125.475,278.249 126.000,278.475 126.000 C 278.701 126.000,278.788 126.255,278.668 126.567 C 278.548 126.879,278.709 127.233,279.025 127.354 C 279.341 127.476,279.600 127.851,279.600 128.187 C 279.600 128.524,279.780 128.800,280.000 128.800 C 280.220 128.800,280.400 129.076,280.400 129.413 C 280.400 129.749,280.659 130.124,280.976 130.246 C 281.292 130.367,281.666 130.992,281.807 131.633 C 281.948 132.275,282.196 132.800,282.357 132.800 C 282.519 132.800,282.898 133.430,283.200 134.200 C 283.502 134.970,283.896 135.600,284.075 135.600 C 284.254 135.600,284.400 135.842,284.400 136.139 C 284.400 136.435,284.760 137.093,285.200 137.600 C 285.640 138.107,286.000 138.765,286.000 139.061 C 286.000 139.358,286.144 139.600,286.320 139.600 C 286.495 139.600,286.867 140.230,287.146 141.000 C 287.424 141.770,287.801 142.400,287.983 142.400 C 288.164 142.400,288.426 142.850,288.564 143.400 C 288.702 143.950,288.992 144.400,289.208 144.400 C 289.423 144.400,289.600 144.657,289.600 144.971 C 289.600 145.286,289.881 145.824,290.226 146.168 C 290.570 146.512,290.739 146.975,290.602 147.197 C 290.465 147.419,290.531 147.600,290.749 147.600 C 290.968 147.600,291.272 147.997,291.426 148.481 C 291.580 148.966,291.907 149.590,292.153 149.867 C 293.337 151.204,293.586 151.606,293.827 152.566 C 293.970 153.135,294.258 153.600,294.467 153.600 C 294.676 153.600,294.736 153.780,294.600 154.000 C 294.464 154.220,294.540 154.400,294.769 154.400 C 294.998 154.400,295.298 154.850,295.436 155.400 C 295.574 155.950,295.847 156.400,296.043 156.400 C 296.240 156.400,296.400 156.642,296.400 156.939 C 296.400 157.235,296.760 157.893,297.200 158.400 C 297.640 158.907,298.000 159.565,298.000 159.861 C 298.000 160.158,298.174 160.400,298.387 160.400 C 298.601 160.400,298.680 160.647,298.564 160.948 C 298.449 161.250,298.634 161.604,298.977 161.736 C 299.320 161.867,299.600 162.251,299.600 162.587 C 299.600 162.924,299.766 163.200,299.968 163.200 C 300.171 163.200,300.452 163.725,300.593 164.367 C 300.734 165.008,301.108 165.633,301.424 165.754 C 301.741 165.876,302.000 166.251,302.000 166.587 C 302.000 166.924,302.174 167.200,302.387 167.200 C 302.601 167.200,302.680 167.447,302.564 167.748 C 302.449 168.050,302.634 168.404,302.977 168.536 C 303.320 168.667,303.600 169.051,303.600 169.387 C 303.600 169.724,303.766 170.000,303.968 170.000 C 304.171 170.000,304.452 170.525,304.593 171.167 C 304.734 171.808,305.108 172.433,305.424 172.554 C 305.741 172.676,306.000 173.051,306.000 173.387 C 306.000 173.724,306.199 174.000,306.443 174.000 C 306.686 174.000,306.788 174.255,306.668 174.567 C 306.548 174.879,306.709 175.233,307.025 175.354 C 307.341 175.476,307.600 175.851,307.600 176.187 C 307.600 176.524,307.766 176.800,307.968 176.800 C 308.171 176.800,308.452 177.325,308.593 177.967 C 308.734 178.608,309.108 179.233,309.424 179.354 C 309.741 179.476,310.000 179.851,310.000 180.187 C 310.000 180.524,310.166 180.800,310.368 180.800 C 310.571 180.800,310.858 181.352,311.006 182.027 C 311.154 182.702,311.517 183.347,311.813 183.460 C 312.109 183.574,312.463 184.177,312.600 184.800 C 312.737 185.423,313.108 186.033,313.424 186.154 C 313.741 186.276,314.000 186.651,314.000 186.987 C 314.000 187.324,314.166 187.600,314.368 187.600 C 314.571 187.600,314.858 188.152,315.006 188.827 C 315.154 189.502,315.512 190.145,315.802 190.256 C 316.091 190.367,316.443 190.917,316.584 191.477 C 316.724 192.038,317.056 192.739,317.320 193.034 C 318.611 194.480,318.822 194.840,318.597 195.205 C 318.463 195.422,318.543 195.600,318.776 195.600 C 319.009 195.600,319.200 195.842,319.200 196.139 C 319.200 196.435,319.560 197.093,320.000 197.600 C 320.440 198.107,320.800 198.765,320.800 199.061 C 320.800 199.358,320.977 199.600,321.192 199.600 C 321.408 199.600,321.698 200.050,321.836 200.600 C 321.974 201.150,322.258 201.600,322.467 201.600 C 322.676 201.600,322.736 201.780,322.600 202.000 C 322.464 202.220,322.543 202.400,322.776 202.400 C 323.009 202.400,323.200 202.657,323.200 202.971 C 323.200 203.286,323.446 203.789,323.747 204.090 C 324.048 204.391,324.420 205.034,324.574 205.519 C 324.728 206.003,325.002 206.400,325.184 206.400 C 325.365 206.400,325.626 206.850,325.764 207.400 C 325.902 207.950,326.202 208.400,326.431 208.400 C 326.660 208.400,326.735 208.581,326.598 208.803 C 326.461 209.025,326.585 209.469,326.874 209.789 C 328.035 211.077,328.315 211.501,328.604 212.412 C 328.770 212.935,329.107 213.590,329.353 213.867 C 330.472 215.131,330.650 215.449,330.497 215.909 C 330.407 216.179,330.528 216.400,330.767 216.400 C 331.005 216.400,331.200 216.676,331.200 217.013 C 331.200 217.349,331.459 217.724,331.776 217.846 C 332.092 217.967,332.466 218.592,332.607 219.233 C 332.748 219.875,333.029 220.400,333.232 220.400 C 333.434 220.400,333.600 220.676,333.600 221.013 C 333.600 221.349,333.880 221.733,334.223 221.864 C 334.566 221.996,334.751 222.350,334.636 222.652 C 334.520 222.953,334.599 223.200,334.813 223.200 C 335.026 223.200,335.200 223.476,335.200 223.813 C 335.200 224.149,335.459 224.524,335.776 224.646 C 336.092 224.767,336.466 225.392,336.607 226.033 C 336.748 226.675,337.029 227.200,337.232 227.200 C 337.434 227.200,337.600 227.476,337.600 227.813 C 337.600 228.149,337.854 228.522,338.164 228.641 C 338.474 228.761,338.849 229.340,338.996 229.929 C 339.267 231.007,340.464 232.400,341.119 232.400 C 341.503 232.400,341.848 212.835,342.263 167.500 C 342.409 151.495,342.680 138.400,342.864 138.400 C 343.049 138.400,343.200 130.309,343.200 120.421 L 343.200 102.441 342.254 101.421 C 341.734 100.859,341.170 100.400,341.000 100.400 C 340.830 100.400,340.285 99.961,339.788 99.425 C 339.291 98.888,338.785 98.548,338.664 98.669 C 338.543 98.790,338.009 98.419,337.476 97.845 C 336.944 97.270,336.364 96.800,336.188 96.800 C 336.011 96.800,335.582 96.524,335.234 96.187 C 333.945 94.942,332.190 93.601,331.846 93.600 C 331.651 93.600,331.075 93.150,330.565 92.600 C 330.055 92.050,329.459 91.600,329.239 91.600 C 329.019 91.600,328.664 91.286,328.450 90.903 C 328.235 90.520,327.929 90.337,327.770 90.497 C 327.610 90.656,327.065 90.340,326.559 89.793 C 326.053 89.247,325.490 88.800,325.308 88.800 C 325.126 88.800,324.670 88.440,324.293 88.000 C 323.916 87.560,323.379 87.200,323.100 87.200 C 322.821 87.200,322.368 86.840,322.093 86.400 C 321.818 85.960,321.390 85.600,321.142 85.600 C 320.895 85.600,320.307 85.185,319.837 84.678 C 319.367 84.171,318.671 83.636,318.291 83.490 C 317.911 83.344,317.600 83.052,317.600 82.840 C 317.600 82.627,317.195 82.329,316.700 82.176 C 315.788 81.895,315.645 81.787,313.259 79.585 C 312.522 78.905,311.828 78.439,311.717 78.550 C 311.502 78.765,311.048 78.438,309.198 76.733 C 308.562 76.147,307.672 75.550,307.220 75.406 C 306.769 75.263,306.400 74.974,306.400 74.763 C 306.400 74.553,305.950 74.209,305.400 74.000 C 304.850 73.791,304.400 73.439,304.400 73.218 C 304.400 72.996,303.973 72.708,303.451 72.577 C 302.929 72.446,302.267 71.899,301.979 71.360 C 301.691 70.822,301.263 70.448,301.028 70.530 C 300.792 70.612,300.204 70.256,299.719 69.739 C 299.235 69.223,298.690 68.800,298.508 68.800 C 298.326 68.800,297.870 68.440,297.493 68.000 C 297.116 67.560,296.536 67.200,296.204 67.200 C 295.872 67.200,295.600 67.016,295.600 66.790 C 295.600 66.565,295.150 66.209,294.600 66.000 C 294.050 65.791,293.600 65.447,293.600 65.237 C 293.600 65.026,293.212 64.731,292.738 64.580 C 292.263 64.430,291.453 63.851,290.938 63.295 C 290.422 62.738,290.000 62.426,290.000 62.600 C 290.000 62.774,289.578 62.462,289.062 61.905 C 288.547 61.349,287.737 60.770,287.262 60.620 C 286.788 60.469,286.400 60.174,286.400 59.963 C 286.400 59.753,285.950 59.409,285.400 59.200 C 284.850 58.991,284.400 58.639,284.400 58.418 C 284.400 58.196,283.973 57.908,283.451 57.777 C 282.929 57.646,282.276 57.116,282.000 56.600 C 281.724 56.084,281.071 55.554,280.549 55.423 C 280.027 55.292,279.600 55.014,279.600 54.805 C 279.600 54.596,279.364 54.516,279.075 54.627 C 278.786 54.737,278.313 54.385,278.024 53.844 C 277.734 53.304,277.071 52.754,276.549 52.623 C 276.027 52.492,275.600 52.204,275.600 51.982 C 275.600 51.761,275.150 51.409,274.600 51.200 C 274.050 50.991,273.600 50.647,273.600 50.437 C 273.600 50.226,273.231 49.937,272.780 49.794 C 272.328 49.650,271.383 49.011,270.680 48.373 C 268.433 46.337,268.095 46.084,267.276 45.824 C 266.835 45.684,266.373 45.306,266.250 44.985 C 266.126 44.663,265.769 44.400,265.455 44.400 C 265.142 44.400,264.782 44.130,264.655 43.800 C 264.529 43.470,264.149 43.200,263.813 43.200 C 263.476 43.200,263.200 43.009,263.200 42.776 C 263.200 42.543,263.039 42.452,262.842 42.574 C 262.645 42.696,262.381 42.526,262.254 42.198 C 262.128 41.869,261.831 41.600,261.593 41.600 C 261.356 41.600,260.745 41.150,260.235 40.600 C 259.725 40.050,259.105 39.600,258.858 39.600 C 258.610 39.600,258.182 39.240,257.907 38.800 C 257.632 38.360,257.179 38.000,256.900 38.000 C 256.621 38.000,256.084 37.640,255.707 37.200 C 255.330 36.760,254.792 36.400,254.511 36.400 C 254.230 36.400,254.000 36.216,254.000 35.991 C 254.000 35.767,253.511 35.362,252.914 35.091 C 252.317 34.821,251.337 34.150,250.736 33.600 C 248.959 31.973,248.456 31.600,248.037 31.600 C 247.818 31.600,247.456 31.285,247.232 30.900 C 247.008 30.515,246.819 30.342,246.812 30.516 C 246.799 30.855,245.953 30.234,244.883 29.100 C 244.520 28.715,243.992 28.400,243.711 28.400 C 243.430 28.400,243.200 28.250,243.200 28.068 C 243.200 27.885,242.706 27.480,242.103 27.168 C 241.500 26.855,240.624 26.195,240.157 25.700 C 239.690 25.205,239.110 24.800,238.868 24.800 C 238.626 24.800,238.235 24.440,238.000 24.000 C 237.765 23.560,237.391 23.200,237.169 23.200 C 236.948 23.200,236.380 22.840,235.908 22.400 C 235.436 21.960,234.832 21.600,234.567 21.600 C 234.302 21.600,233.982 21.330,233.855 21.000 C 233.729 20.670,233.415 20.400,233.158 20.400 C 232.902 20.400,232.285 19.961,231.788 19.425 C 231.291 18.888,230.785 18.548,230.664 18.669 C 230.543 18.790,230.009 18.419,229.476 17.845 C 228.944 17.270,228.364 16.800,228.188 16.800 C 228.011 16.800,227.582 16.524,227.234 16.187 C 225.945 14.942,224.190 13.601,223.846 13.600 C 223.651 13.600,223.107 13.185,222.637 12.678 C 222.167 12.171,221.471 11.636,221.091 11.490 C 220.711 11.344,220.400 11.057,220.400 10.852 C 220.400 10.646,219.860 10.290,219.200 10.060 C 218.540 9.830,218.000 9.452,218.000 9.221 C 218.000 8.989,217.770 8.800,217.489 8.800 C 217.208 8.800,216.670 8.440,216.293 8.000 C 215.916 7.560,215.379 7.200,215.100 7.200 C 214.821 7.200,214.368 6.840,214.093 6.400 C 213.818 5.960,213.390 5.600,213.142 5.600 C 212.895 5.600,212.307 5.185,211.837 4.678 C 211.367 4.171,210.671 3.636,210.291 3.490 C 209.911 3.344,209.600 3.057,209.600 2.852 C 209.600 2.528,207.544 1.600,206.826 1.600 C 206.686 1.600,206.571 1.960,206.571 2.400 M199.007 3.167 C 198.866 3.808,198.492 4.433,198.176 4.554 C 197.859 4.676,197.600 5.051,197.600 5.387 C 197.600 5.724,197.434 6.000,197.232 6.000 C 197.029 6.000,196.748 6.525,196.607 7.167 C 196.466 7.808,196.109 8.426,195.813 8.540 C 195.517 8.653,195.154 9.298,195.006 9.973 C 194.858 10.648,194.571 11.200,194.368 11.200 C 194.166 11.200,194.000 11.476,194.000 11.813 C 194.000 12.149,193.741 12.524,193.424 12.646 C 193.108 12.767,192.734 13.392,192.593 14.033 C 192.452 14.675,192.171 15.200,191.968 15.200 C 191.766 15.200,191.600 15.476,191.600 15.813 C 191.600 16.149,191.341 16.524,191.025 16.646 C 190.709 16.767,190.548 17.121,190.668 17.433 C 190.788 17.745,190.701 18.000,190.475 18.000 C 190.249 18.000,189.948 18.525,189.807 19.167 C 189.666 19.808,189.292 20.433,188.976 20.554 C 188.659 20.676,188.400 21.051,188.400 21.387 C 188.400 21.724,188.220 22.000,188.000 22.000 C 187.780 22.000,187.600 22.276,187.600 22.613 C 187.600 22.949,187.320 23.333,186.977 23.464 C 186.634 23.596,186.449 23.950,186.564 24.252 C 186.680 24.553,186.615 24.800,186.419 24.800 C 186.224 24.800,185.948 25.325,185.807 25.967 C 185.666 26.608,185.292 27.233,184.976 27.354 C 184.659 27.476,184.400 27.851,184.400 28.187 C 184.400 28.524,184.234 28.800,184.032 28.800 C 183.829 28.800,183.542 29.352,183.394 30.027 C 183.246 30.702,182.883 31.347,182.587 31.460 C 182.291 31.574,181.934 32.192,181.793 32.833 C 181.652 33.475,181.371 34.000,181.168 34.000 C 180.966 34.000,180.800 34.276,180.800 34.613 C 180.800 34.949,180.550 35.321,180.245 35.438 C 179.939 35.555,179.469 36.438,179.200 37.400 C 178.931 38.362,178.461 39.245,178.155 39.362 C 177.850 39.479,177.600 39.851,177.600 40.187 C 177.600 40.524,177.420 40.800,177.200 40.800 C 176.980 40.800,176.800 41.076,176.800 41.413 C 176.800 41.749,176.541 42.124,176.224 42.246 C 175.908 42.367,175.534 42.992,175.393 43.633 C 175.252 44.275,174.976 44.800,174.781 44.800 C 174.585 44.800,174.520 45.047,174.636 45.348 C 174.751 45.650,174.566 46.004,174.223 46.136 C 173.880 46.267,173.600 46.651,173.600 46.987 C 173.600 47.324,173.440 47.600,173.243 47.600 C 173.047 47.600,172.768 48.072,172.624 48.648 C 172.479 49.225,172.144 49.939,171.880 50.234 C 170.589 51.680,170.378 52.040,170.603 52.405 C 170.737 52.622,170.676 52.800,170.467 52.800 C 170.258 52.800,169.972 53.257,169.832 53.816 C 169.691 54.375,169.416 54.734,169.221 54.613 C 169.025 54.492,168.746 54.935,168.601 55.597 C 168.455 56.258,168.171 56.800,167.968 56.800 C 167.766 56.800,167.600 57.076,167.600 57.413 C 167.600 57.749,167.320 58.133,166.977 58.264 C 166.634 58.396,166.449 58.750,166.564 59.052 C 166.680 59.353,166.601 59.600,166.387 59.600 C 166.174 59.600,166.000 59.842,166.000 60.139 C 166.000 60.435,165.640 61.093,165.200 61.600 C 164.760 62.107,164.400 62.765,164.400 63.061 C 164.400 63.358,164.220 63.600,164.000 63.600 C 163.780 63.600,163.600 63.857,163.600 64.171 C 163.600 64.486,163.324 65.019,162.986 65.357 C 162.648 65.695,162.353 66.113,162.332 66.286 C 162.213 67.221,161.266 68.882,160.120 70.166 C 159.856 70.461,159.521 71.175,159.376 71.752 C 159.232 72.328,158.942 72.800,158.733 72.800 C 158.524 72.800,158.464 72.980,158.600 73.200 C 158.736 73.420,158.660 73.600,158.431 73.600 C 158.202 73.600,157.902 74.050,157.764 74.600 C 157.626 75.150,157.372 75.600,157.200 75.600 C 157.028 75.600,156.774 76.050,156.636 76.600 C 156.498 77.150,156.208 77.600,155.992 77.600 C 155.777 77.600,155.600 77.857,155.600 78.171 C 155.600 78.486,155.319 79.024,154.974 79.368 C 154.630 79.712,154.461 80.175,154.598 80.397 C 154.735 80.619,154.660 80.800,154.431 80.800 C 154.202 80.800,153.903 81.249,153.765 81.797 C 153.627 82.346,153.373 82.707,153.200 82.600 C 153.027 82.493,152.773 82.854,152.635 83.403 C 152.497 83.951,152.208 84.400,151.992 84.400 C 151.777 84.400,151.600 84.657,151.600 84.971 C 151.600 85.286,151.319 85.824,150.974 86.168 C 150.630 86.512,150.461 86.975,150.598 87.197 C 150.735 87.419,150.660 87.600,150.431 87.600 C 150.202 87.600,149.902 88.050,149.764 88.600 C 149.626 89.150,149.365 89.600,149.184 89.600 C 149.002 89.600,148.728 89.997,148.574 90.481 C 148.420 90.966,148.048 91.609,147.747 91.910 C 147.446 92.211,147.200 92.714,147.200 93.029 C 147.200 93.343,147.020 93.600,146.800 93.600 C 146.580 93.600,146.431 93.735,146.470 93.900 C 146.582 94.381,145.504 96.400,145.136 96.400 C 144.951 96.400,144.800 96.657,144.800 96.971 C 144.800 97.286,144.554 97.789,144.253 98.090 C 143.952 98.391,143.580 99.034,143.426 99.519 C 143.272 100.003,142.968 100.400,142.749 100.400 C 142.531 100.400,142.465 100.581,142.602 100.803 C 142.739 101.025,142.615 101.469,142.326 101.789 C 141.084 103.167,140.818 103.587,140.573 104.566 C 140.430 105.135,140.186 105.600,140.031 105.600 C 139.876 105.600,139.502 106.230,139.200 107.000 C 138.898 107.770,138.519 108.400,138.357 108.400 C 138.196 108.400,137.945 108.942,137.799 109.603 C 137.654 110.265,137.375 110.708,137.179 110.587 C 136.984 110.466,136.709 110.825,136.568 111.384 C 136.428 111.943,136.172 112.400,136.000 112.400 C 135.828 112.400,135.574 112.850,135.436 113.400 C 135.298 113.950,135.022 114.400,134.823 114.400 C 134.625 114.400,134.241 115.070,133.971 115.889 C 133.700 116.708,133.281 117.602,133.040 117.875 C 131.861 119.208,131.613 119.608,131.373 120.566 C 131.230 121.135,130.942 121.600,130.733 121.600 C 130.524 121.600,130.451 121.760,130.572 121.955 C 130.693 122.150,130.523 122.532,130.196 122.804 C 129.868 123.076,129.600 123.546,129.600 123.849 C 129.600 124.152,129.420 124.400,129.200 124.400 C 128.980 124.400,128.800 124.676,128.800 125.013 C 128.800 125.349,128.541 125.724,128.224 125.846 C 127.908 125.967,127.534 126.592,127.393 127.233 C 127.252 127.875,126.976 128.400,126.781 128.400 C 126.585 128.400,126.520 128.647,126.636 128.948 C 126.751 129.250,126.566 129.604,126.223 129.736 C 125.880 129.867,125.600 130.251,125.600 130.587 C 125.600 130.924,125.434 131.200,125.232 131.200 C 125.029 131.200,124.748 131.725,124.607 132.367 C 124.466 133.008,124.109 133.626,123.813 133.740 C 123.517 133.853,123.154 134.498,123.006 135.173 C 122.858 135.848,122.571 136.400,122.368 136.400 C 122.166 136.400,122.000 136.676,122.000 137.013 C 122.000 137.349,121.741 137.724,121.424 137.846 C 121.108 137.967,120.734 138.592,120.593 139.233 C 120.452 139.875,120.204 140.400,120.043 140.400 C 119.881 140.400,119.502 141.030,119.200 141.800 C 118.898 142.570,118.504 143.200,118.325 143.200 C 118.146 143.200,118.000 143.476,118.000 143.813 C 118.000 144.149,117.741 144.524,117.424 144.646 C 117.108 144.767,116.734 145.392,116.593 146.033 C 116.452 146.675,116.171 147.200,115.968 147.200 C 115.766 147.200,115.600 147.476,115.600 147.813 C 115.600 148.149,115.341 148.524,115.025 148.646 C 114.709 148.767,114.548 149.121,114.668 149.433 C 114.788 149.745,114.701 150.000,114.475 150.000 C 114.249 150.000,113.948 150.525,113.807 151.167 C 113.666 151.808,113.292 152.433,112.976 152.554 C 112.659 152.676,112.400 153.051,112.400 153.387 C 112.400 153.724,112.234 154.000,112.032 154.000 C 111.829 154.000,111.548 154.525,111.407 155.167 C 111.266 155.808,110.909 156.426,110.613 156.540 C 110.317 156.653,109.954 157.298,109.806 157.973 C 109.658 158.648,109.371 159.200,109.168 159.200 C 108.966 159.200,108.800 159.476,108.800 159.813 C 108.800 160.149,108.550 160.521,108.245 160.638 C 107.939 160.755,107.469 161.638,107.200 162.600 C 106.931 163.562,106.461 164.445,106.155 164.562 C 105.850 164.679,105.600 165.051,105.600 165.387 C 105.600 165.724,105.420 166.000,105.200 166.000 C 104.980 166.000,104.800 166.276,104.800 166.613 C 104.800 166.949,104.550 167.321,104.245 167.438 C 103.939 167.555,103.469 168.438,103.200 169.400 C 102.931 170.362,102.461 171.245,102.155 171.362 C 101.850 171.479,101.600 171.851,101.600 172.187 C 101.600 172.524,101.434 172.800,101.232 172.800 C 101.029 172.800,100.748 173.325,100.607 173.967 C 100.466 174.608,100.092 175.233,99.776 175.354 C 99.459 175.476,99.200 175.851,99.200 176.187 C 99.200 176.524,99.026 176.800,98.813 176.800 C 98.599 176.800,98.529 177.070,98.655 177.400 C 98.782 177.730,98.686 178.000,98.443 178.000 C 98.199 178.000,98.000 178.276,98.000 178.613 C 98.000 178.949,97.741 179.324,97.424 179.446 C 97.108 179.567,96.734 180.192,96.593 180.833 C 96.452 181.475,96.171 182.000,95.968 182.000 C 95.766 182.000,95.600 182.276,95.600 182.613 C 95.600 182.949,95.320 183.333,94.977 183.464 C 94.634 183.596,94.449 183.950,94.564 184.252 C 94.680 184.553,94.620 184.800,94.431 184.800 C 94.242 184.800,93.972 185.257,93.832 185.816 C 93.691 186.375,93.416 186.734,93.221 186.613 C 93.025 186.492,92.746 186.935,92.601 187.597 C 92.455 188.258,92.171 188.800,91.968 188.800 C 91.766 188.800,91.600 189.076,91.600 189.413 C 91.600 189.749,91.320 190.133,90.977 190.264 C 90.634 190.396,90.449 190.750,90.564 191.052 C 90.680 191.353,90.615 191.600,90.419 191.600 C 90.224 191.600,89.948 192.125,89.807 192.767 C 89.666 193.408,89.292 194.033,88.976 194.154 C 88.659 194.276,88.400 194.651,88.400 194.987 C 88.400 195.324,88.240 195.600,88.043 195.600 C 87.847 195.600,87.566 196.081,87.419 196.668 C 87.271 197.256,86.802 198.180,86.375 198.722 C 85.949 199.264,85.600 199.954,85.600 200.254 C 85.600 200.554,85.420 200.800,85.200 200.800 C 84.980 200.800,84.800 201.076,84.800 201.413 C 84.800 201.749,84.541 202.124,84.224 202.246 C 83.908 202.367,83.534 202.992,83.393 203.633 C 83.252 204.275,82.976 204.800,82.781 204.800 C 82.585 204.800,82.520 205.047,82.636 205.348 C 82.751 205.650,82.566 206.004,82.223 206.136 C 81.880 206.267,81.600 206.651,81.600 206.987 C 81.600 207.324,81.440 207.600,81.243 207.600 C 81.047 207.600,80.774 208.050,80.636 208.600 C 80.498 209.150,80.208 209.600,79.992 209.600 C 79.777 209.600,79.600 209.857,79.600 210.171 C 79.600 210.486,79.319 211.024,78.974 211.368 C 78.630 211.712,78.461 212.175,78.598 212.397 C 78.735 212.619,78.660 212.800,78.431 212.800 C 78.202 212.800,77.903 213.249,77.765 213.797 C 77.627 214.346,77.373 214.707,77.200 214.600 C 77.027 214.493,76.767 214.876,76.623 215.451 C 76.479 216.026,76.144 216.739,75.880 217.034 C 74.589 218.480,74.378 218.840,74.603 219.205 C 74.737 219.422,74.657 219.600,74.424 219.600 C 74.191 219.600,74.000 219.842,74.000 220.139 C 74.000 220.435,73.640 221.093,73.200 221.600 C 72.760 222.107,72.400 222.765,72.400 223.061 C 72.400 223.358,72.220 223.600,72.000 223.600 C 71.780 223.600,71.600 223.857,71.600 224.171 C 71.600 224.486,71.362 224.981,71.071 225.271 C 70.781 225.562,70.527 225.890,70.508 226.000 C 70.388 226.698,69.415 228.400,69.136 228.400 C 68.951 228.400,68.800 228.657,68.800 228.971 C 68.800 229.286,68.554 229.789,68.253 230.090 C 67.952 230.391,67.580 231.034,67.426 231.519 C 67.272 232.003,66.984 232.400,66.786 232.400 C 66.587 232.400,66.529 232.670,66.655 233.000 C 66.782 233.330,66.686 233.600,66.443 233.600 C 66.199 233.600,66.000 233.960,66.000 234.400 C 66.000 235.183,66.267 235.200,78.800 235.200 C 87.067 235.200,91.600 235.058,91.600 234.800 C 91.600 234.536,104.767 234.400,130.300 234.400 C 253.602 234.400,335.200 233.895,335.200 233.134 C 335.200 232.730,335.034 232.400,334.832 232.400 C 334.629 232.400,334.342 231.848,334.194 231.173 C 334.046 230.498,333.688 229.855,333.398 229.744 C 333.109 229.633,332.757 229.083,332.616 228.523 C 332.476 227.962,332.144 227.261,331.880 226.966 C 330.727 225.674,330.486 225.273,330.026 223.877 C 329.757 223.065,329.384 222.400,329.196 222.400 C 329.008 222.400,328.728 222.003,328.574 221.519 C 328.420 221.034,328.048 220.391,327.747 220.090 C 327.446 219.789,327.200 219.275,327.200 218.948 C 327.200 218.621,327.035 218.455,326.833 218.580 C 326.630 218.705,326.349 218.280,326.208 217.636 C 326.067 216.993,325.602 216.063,325.175 215.572 C 324.749 215.080,324.400 214.435,324.400 214.139 C 324.400 213.842,324.223 213.600,324.008 213.600 C 323.792 213.600,323.502 213.150,323.364 212.600 C 323.226 212.050,322.989 211.600,322.837 211.600 C 322.685 211.600,322.333 210.970,322.054 210.200 C 321.776 209.430,321.394 208.800,321.206 208.800 C 321.018 208.800,320.748 208.275,320.607 207.633 C 320.466 206.992,320.092 206.367,319.776 206.246 C 319.459 206.124,319.200 205.749,319.200 205.413 C 319.200 205.076,319.056 204.800,318.880 204.800 C 318.705 204.800,318.333 204.170,318.054 203.400 C 317.776 202.630,317.394 202.000,317.206 202.000 C 317.018 202.000,316.748 201.475,316.607 200.833 C 316.466 200.192,316.092 199.567,315.776 199.446 C 315.459 199.324,315.200 198.949,315.200 198.613 C 315.200 198.276,315.034 198.000,314.832 198.000 C 314.629 198.000,314.342 197.448,314.194 196.773 C 314.046 196.098,313.683 195.453,313.387 195.340 C 313.091 195.226,312.737 194.623,312.600 194.000 C 312.463 193.377,312.092 192.767,311.776 192.646 C 311.459 192.524,311.200 192.149,311.200 191.813 C 311.200 191.476,311.034 191.200,310.832 191.200 C 310.629 191.200,310.342 190.648,310.194 189.973 C 310.046 189.298,309.683 188.653,309.387 188.540 C 309.091 188.426,308.737 187.823,308.600 187.200 C 308.463 186.577,308.092 185.967,307.776 185.846 C 307.459 185.724,307.200 185.349,307.200 185.013 C 307.200 184.676,307.034 184.400,306.832 184.400 C 306.629 184.400,306.342 183.848,306.194 183.173 C 306.046 182.498,305.688 181.855,305.398 181.744 C 305.109 181.633,304.757 181.083,304.616 180.523 C 304.476 179.962,304.144 179.261,303.880 178.966 C 302.727 177.674,302.486 177.273,302.026 175.877 C 301.757 175.065,301.384 174.400,301.196 174.400 C 301.008 174.400,300.728 174.003,300.574 173.519 C 300.420 173.034,300.048 172.391,299.747 172.090 C 299.446 171.789,299.200 171.275,299.200 170.948 C 299.200 170.621,299.035 170.455,298.833 170.580 C 298.630 170.705,298.349 170.280,298.208 169.636 C 298.067 168.993,297.602 168.063,297.175 167.572 C 296.749 167.080,296.400 166.435,296.400 166.139 C 296.400 165.842,296.223 165.600,296.008 165.600 C 295.792 165.600,295.502 165.150,295.364 164.600 C 295.226 164.050,294.989 163.600,294.837 163.600 C 294.685 163.600,294.333 162.970,294.054 162.200 C 293.776 161.430,293.394 160.800,293.206 160.800 C 293.018 160.800,292.748 160.275,292.607 159.633 C 292.466 158.992,292.092 158.367,291.776 158.246 C 291.459 158.124,291.200 157.749,291.200 157.413 C 291.200 157.076,291.056 156.800,290.880 156.800 C 290.705 156.800,290.333 156.170,290.054 155.400 C 289.776 154.630,289.394 154.000,289.206 154.000 C 289.018 154.000,288.748 153.475,288.607 152.833 C 288.466 152.192,288.092 151.567,287.776 151.446 C 287.459 151.324,287.200 150.949,287.200 150.613 C 287.200 150.276,287.034 150.000,286.832 150.000 C 286.629 150.000,286.342 149.448,286.194 148.773 C 286.046 148.098,285.683 147.453,285.387 147.340 C 285.091 147.226,284.737 146.623,284.600 146.000 C 284.463 145.377,284.092 144.767,283.776 144.646 C 283.459 144.524,283.200 144.149,283.200 143.813 C 283.200 143.476,283.034 143.200,282.832 143.200 C 282.629 143.200,282.342 142.648,282.194 141.973 C 282.046 141.298,281.683 140.653,281.387 140.540 C 281.091 140.426,280.737 139.823,280.600 139.200 C 280.463 138.577,280.092 137.967,279.776 137.846 C 279.459 137.724,279.200 137.349,279.200 137.013 C 279.200 136.676,279.034 136.400,278.832 136.400 C 278.629 136.400,278.342 135.848,278.194 135.173 C 278.046 134.498,277.688 133.855,277.398 133.744 C 277.109 133.633,276.757 133.083,276.616 132.523 C 276.476 131.962,276.144 131.261,275.880 130.966 C 274.727 129.674,274.486 129.273,274.026 127.877 C 273.757 127.065,273.384 126.400,273.196 126.400 C 273.008 126.400,272.728 126.003,272.574 125.519 C 272.420 125.034,272.048 124.391,271.747 124.090 C 271.446 123.789,271.200 123.275,271.200 122.948 C 271.200 122.621,271.035 122.455,270.833 122.580 C 270.630 122.705,270.349 122.280,270.208 121.636 C 270.067 120.993,269.602 120.063,269.175 119.572 C 268.749 119.080,268.400 118.435,268.400 118.139 C 268.400 117.842,268.223 117.600,268.008 117.600 C 267.792 117.600,267.502 117.150,267.364 116.600 C 267.226 116.050,266.989 115.600,266.837 115.600 C 266.685 115.600,266.333 114.970,266.054 114.200 C 265.776 113.430,265.394 112.800,265.206 112.800 C 265.018 112.800,264.748 112.275,264.607 111.633 C 264.466 110.992,264.092 110.367,263.776 110.246 C 263.459 110.124,263.200 109.749,263.200 109.413 C 263.200 109.076,263.056 108.800,262.880 108.800 C 262.705 108.800,262.333 108.170,262.054 107.400 C 261.776 106.630,261.394 106.000,261.206 106.000 C 261.018 106.000,260.748 105.475,260.607 104.833 C 260.466 104.192,260.092 103.567,259.776 103.446 C 259.459 103.324,259.200 102.949,259.200 102.613 C 259.200 102.276,259.034 102.000,258.832 102.000 C 258.629 102.000,258.342 101.448,258.194 100.773 C 258.046 100.098,257.683 99.453,257.387 99.340 C 257.091 99.226,256.737 98.623,256.600 98.000 C 256.463 97.377,256.092 96.767,255.776 96.646 C 255.459 96.524,255.200 96.149,255.200 95.813 C 255.200 95.476,255.034 95.200,254.832 95.200 C 254.629 95.200,254.342 94.648,254.194 93.973 C 254.046 93.298,253.683 92.653,253.387 92.540 C 253.091 92.426,252.737 91.823,252.600 91.200 C 252.463 90.577,252.092 89.967,251.776 89.846 C 251.459 89.724,251.200 89.349,251.200 89.013 C 251.200 88.676,251.034 88.400,250.832 88.400 C 250.629 88.400,250.342 87.848,250.194 87.173 C 250.046 86.498,249.688 85.855,249.398 85.744 C 249.109 85.633,248.757 85.083,248.616 84.523 C 248.476 83.962,248.144 83.261,247.880 82.966 C 246.727 81.674,246.486 81.273,246.026 79.877 C 245.757 79.065,245.384 78.400,245.196 78.400 C 245.008 78.400,244.728 78.003,244.574 77.519 C 244.420 77.034,244.048 76.391,243.747 76.090 C 243.446 75.789,243.200 75.275,243.200 74.948 C 243.200 74.621,243.035 74.455,242.833 74.580 C 242.630 74.705,242.349 74.280,242.208 73.636 C 242.067 72.993,241.602 72.063,241.175 71.572 C 240.749 71.080,240.400 70.435,240.400 70.139 C 240.400 69.842,240.223 69.600,240.008 69.600 C 239.792 69.600,239.502 69.150,239.364 68.600 C 239.226 68.050,238.989 67.600,238.837 67.600 C 238.685 67.600,238.333 66.970,238.054 66.200 C 237.776 65.430,237.394 64.800,237.206 64.800 C 237.018 64.800,236.748 64.275,236.607 63.633 C 236.466 62.992,236.092 62.367,235.776 62.246 C 235.459 62.124,235.200 61.749,235.200 61.413 C 235.200 61.076,235.056 60.800,234.880 60.800 C 234.705 60.800,234.333 60.170,234.054 59.400 C 233.776 58.630,233.394 58.000,233.206 58.000 C 233.018 58.000,232.748 57.475,232.607 56.833 C 232.466 56.192,232.092 55.567,231.776 55.446 C 231.459 55.324,231.200 54.949,231.200 54.613 C 231.200 54.276,231.034 54.000,230.832 54.000 C 230.629 54.000,230.342 53.448,230.194 52.773 C 230.046 52.098,229.683 51.453,229.387 51.340 C 229.091 51.226,228.737 50.623,228.600 50.000 C 228.463 49.377,228.092 48.767,227.776 48.646 C 227.459 48.524,227.200 48.149,227.200 47.813 C 227.200 47.476,227.034 47.200,226.832 47.200 C 226.629 47.200,226.342 46.648,226.194 45.973 C 226.046 45.298,225.683 44.653,225.387 44.540 C 225.091 44.426,224.737 43.823,224.600 43.200 C 224.463 42.577,224.092 41.967,223.776 41.846 C 223.459 41.724,223.200 41.349,223.200 41.013 C 223.200 40.676,223.034 40.400,222.832 40.400 C 222.629 40.400,222.342 39.848,222.194 39.173 C 222.046 38.498,221.688 37.855,221.398 37.744 C 221.109 37.633,220.759 37.090,220.620 36.537 C 220.386 35.606,220.137 35.205,218.960 33.875 C 218.719 33.602,218.300 32.708,218.029 31.889 C 217.759 31.070,217.384 30.400,217.196 30.400 C 217.008 30.400,216.728 30.003,216.574 29.519 C 216.420 29.034,216.048 28.391,215.747 28.090 C 215.446 27.789,215.200 27.275,215.200 26.948 C 215.200 26.621,215.035 26.455,214.833 26.580 C 214.630 26.705,214.349 26.280,214.208 25.636 C 214.067 24.993,213.602 24.063,213.175 23.572 C 212.749 23.080,212.400 22.435,212.400 22.139 C 212.400 21.842,212.223 21.600,212.008 21.600 C 211.792 21.600,211.502 21.150,211.364 20.600 C 211.226 20.050,210.989 19.600,210.837 19.600 C 210.685 19.600,210.333 18.970,210.054 18.200 C 209.776 17.430,209.394 16.800,209.206 16.800 C 209.018 16.800,208.748 16.275,208.607 15.633 C 208.466 14.992,208.092 14.367,207.776 14.246 C 207.459 14.124,207.200 13.749,207.200 13.413 C 207.200 13.076,207.056 12.800,206.880 12.800 C 206.705 12.800,206.333 12.170,206.054 11.400 C 205.776 10.630,205.394 10.000,205.206 10.000 C 205.018 10.000,204.748 9.475,204.607 8.833 C 204.466 8.192,204.092 7.567,203.776 7.446 C 203.459 7.324,203.200 6.949,203.200 6.613 C 203.200 6.276,203.034 6.000,202.832 6.000 C 202.629 6.000,202.342 5.448,202.194 4.773 C 202.046 4.098,201.672 3.449,201.362 3.330 C 201.053 3.212,200.800 2.864,200.800 2.557 C 200.800 1.438,199.273 1.957,199.007 3.167 M307.400 238.844 C 292.220 238.979,249.695 239.229,212.900 239.401 C 176.095 239.572,146.000 239.867,146.000 240.056 C 146.000 240.245,130.729 240.400,112.064 240.400 C 74.599 240.400,66.000 240.601,66.000 241.475 C 66.000 241.778,66.315 242.141,66.700 242.283 C 67.085 242.424,67.764 242.924,68.209 243.392 C 68.654 243.861,69.329 244.364,69.709 244.510 C 70.089 244.656,70.400 244.948,70.400 245.160 C 70.400 245.373,70.805 245.671,71.300 245.824 C 71.795 245.976,72.470 246.343,72.800 246.639 C 73.130 246.935,73.946 247.677,74.614 248.289 C 75.282 248.900,76.317 249.621,76.914 249.891 C 77.511 250.162,78.000 250.567,78.000 250.791 C 78.000 251.016,78.276 251.200,78.613 251.200 C 78.949 251.200,79.329 251.470,79.455 251.800 C 79.582 252.130,79.938 252.400,80.247 252.400 C 80.555 252.400,81.116 252.760,81.493 253.200 C 81.870 253.640,82.368 254.000,82.600 254.000 C 82.832 254.000,83.330 254.360,83.707 254.800 C 84.084 255.240,84.634 255.600,84.928 255.600 C 85.223 255.600,85.706 256.050,86.000 256.600 C 86.294 257.150,86.775 257.600,87.068 257.600 C 87.360 257.600,87.960 257.960,88.400 258.400 C 88.840 258.840,89.340 259.200,89.511 259.200 C 89.682 259.200,90.130 259.560,90.507 260.000 C 90.884 260.440,91.464 260.800,91.796 260.800 C 92.128 260.800,92.400 260.989,92.400 261.219 C 92.400 261.450,92.985 261.893,93.700 262.204 C 94.415 262.514,94.865 262.776,94.700 262.784 C 94.175 262.812,95.887 264.310,96.761 264.587 C 97.222 264.734,97.600 265.026,97.600 265.237 C 97.600 265.447,98.050 265.791,98.600 266.000 C 99.150 266.209,99.600 266.561,99.600 266.782 C 99.600 267.004,100.027 267.292,100.549 267.423 C 101.071 267.554,101.731 268.097,102.016 268.630 C 102.302 269.164,102.775 269.600,103.068 269.600 C 103.360 269.600,103.960 269.960,104.400 270.400 C 104.840 270.840,105.340 271.200,105.511 271.200 C 105.682 271.200,106.130 271.560,106.507 272.000 C 106.884 272.440,107.464 272.800,107.796 272.800 C 108.128 272.800,108.400 272.989,108.400 273.219 C 108.400 273.450,108.985 273.893,109.700 274.204 C 110.415 274.514,110.865 274.776,110.700 274.784 C 110.175 274.812,111.887 276.310,112.761 276.587 C 113.222 276.734,113.600 277.026,113.600 277.237 C 113.600 277.447,114.050 277.791,114.600 278.000 C 115.150 278.209,115.600 278.565,115.600 278.790 C 115.600 279.016,115.872 279.200,116.204 279.200 C 116.536 279.200,117.116 279.560,117.493 280.000 C 117.870 280.440,118.318 280.800,118.489 280.800 C 118.660 280.800,119.160 281.160,119.600 281.600 C 120.040 282.040,120.640 282.400,120.932 282.400 C 121.225 282.400,121.698 282.836,121.984 283.370 C 122.269 283.903,122.929 284.446,123.451 284.577 C 123.973 284.708,124.400 285.001,124.400 285.228 C 124.400 285.456,124.940 285.830,125.600 286.060 C 126.259 286.290,126.707 286.627,126.594 286.810 C 126.481 286.993,126.779 287.266,127.257 287.418 C 127.734 287.570,128.522 288.123,129.008 288.647 C 129.494 289.171,130.095 289.600,130.342 289.600 C 130.590 289.600,131.018 289.960,131.293 290.400 C 131.568 290.840,132.021 291.200,132.300 291.200 C 132.579 291.200,133.116 291.560,133.493 292.000 C 133.870 292.440,134.318 292.800,134.489 292.800 C 134.660 292.800,135.160 293.160,135.600 293.600 C 136.040 294.040,136.640 294.400,136.932 294.400 C 137.225 294.400,137.698 294.836,137.984 295.370 C 138.269 295.903,138.929 296.446,139.451 296.577 C 139.973 296.708,140.400 297.001,140.400 297.228 C 140.400 297.456,140.940 297.830,141.600 298.060 C 142.259 298.290,142.707 298.627,142.594 298.810 C 142.481 298.993,142.779 299.266,143.257 299.418 C 143.734 299.570,144.522 300.123,145.008 300.647 C 145.494 301.171,146.086 301.600,146.323 301.600 C 146.560 301.600,146.990 301.934,147.277 302.343 C 147.565 302.751,148.205 303.213,148.700 303.370 C 149.195 303.526,149.600 303.822,149.600 304.027 C 149.600 304.232,149.864 304.400,150.186 304.400 C 150.508 304.400,150.965 304.760,151.200 305.200 C 151.435 305.640,151.894 306.000,152.218 306.000 C 152.542 306.000,153.116 306.360,153.493 306.800 C 153.870 307.240,154.326 307.600,154.508 307.600 C 154.690 307.600,155.235 308.008,155.719 308.506 C 156.204 309.004,157.089 309.661,157.686 309.966 C 158.284 310.271,158.678 310.673,158.563 310.860 C 158.447 311.047,158.635 311.200,158.980 311.200 C 159.325 311.200,159.916 311.560,160.293 312.000 C 160.670 312.440,161.208 312.800,161.489 312.800 C 161.770 312.800,162.000 312.950,162.000 313.132 C 162.000 313.315,162.494 313.720,163.097 314.032 C 163.700 314.345,164.576 315.005,165.043 315.500 C 165.510 315.995,166.090 316.400,166.332 316.400 C 166.574 316.400,166.965 316.760,167.200 317.200 C 167.435 317.640,167.894 318.000,168.218 318.000 C 168.542 318.000,169.116 318.360,169.493 318.800 C 169.870 319.240,170.326 319.600,170.508 319.600 C 170.690 319.600,171.235 320.008,171.719 320.506 C 172.204 321.004,173.089 321.661,173.686 321.966 C 174.284 322.271,174.678 322.673,174.563 322.860 C 174.447 323.047,174.635 323.200,174.980 323.200 C 175.325 323.200,175.916 323.560,176.293 324.000 C 176.670 324.440,177.208 324.800,177.489 324.800 C 177.770 324.800,178.000 324.950,178.000 325.132 C 178.000 325.315,178.494 325.720,179.097 326.032 C 179.700 326.345,180.576 327.005,181.043 327.500 C 181.510 327.995,182.090 328.400,182.332 328.400 C 182.574 328.400,182.965 328.760,183.200 329.200 C 183.435 329.640,183.855 330.000,184.133 330.000 C 184.688 330.000,186.133 331.011,187.134 332.100 C 187.488 332.485,188.008 332.800,188.289 332.800 C 188.570 332.800,188.800 332.950,188.800 333.132 C 188.800 333.315,189.294 333.720,189.897 334.032 C 190.500 334.345,191.355 334.973,191.797 335.430 C 192.239 335.886,192.915 336.376,193.300 336.517 C 193.685 336.659,194.000 336.939,194.000 337.139 C 194.000 337.339,194.527 337.721,195.171 337.988 C 195.815 338.255,196.440 338.727,196.559 339.037 C 196.678 339.346,196.985 339.600,197.242 339.600 C 197.498 339.600,198.125 340.050,198.635 340.600 C 199.145 341.150,199.775 341.600,200.035 341.600 C 200.295 341.600,200.925 341.150,201.435 340.600 C 201.945 340.050,202.510 339.600,202.692 339.600 C 202.874 339.600,203.330 339.240,203.707 338.800 C 204.084 338.360,204.658 338.000,204.982 338.000 C 205.306 338.000,205.765 337.640,206.000 337.200 C 206.235 336.760,206.626 336.400,206.868 336.400 C 207.110 336.400,207.690 335.995,208.157 335.500 C 208.624 335.005,209.500 334.345,210.103 334.032 C 210.706 333.720,211.200 333.315,211.200 333.132 C 211.200 332.950,211.410 332.800,211.666 332.800 C 211.923 332.800,212.418 332.524,212.766 332.187 C 214.055 330.942,215.810 329.601,216.154 329.600 C 216.349 329.600,216.925 329.150,217.435 328.600 C 217.945 328.050,218.510 327.600,218.692 327.600 C 218.874 327.600,219.330 327.240,219.707 326.800 C 220.084 326.360,220.658 326.000,220.982 326.000 C 221.306 326.000,221.765 325.640,222.000 325.200 C 222.235 324.760,222.626 324.400,222.868 324.400 C 223.110 324.400,223.725 323.950,224.235 323.400 C 224.745 322.850,225.332 322.400,225.539 322.400 C 225.746 322.400,226.340 321.953,226.858 321.407 C 227.376 320.861,227.959 320.411,228.154 320.407 C 228.349 320.403,228.890 319.995,229.357 319.500 C 229.824 319.005,230.700 318.345,231.303 318.032 C 231.906 317.720,232.400 317.315,232.400 317.132 C 232.400 316.950,232.664 316.800,232.986 316.800 C 233.308 316.800,233.765 316.440,234.000 316.000 C 234.235 315.560,234.692 315.200,235.014 315.200 C 235.336 315.200,235.600 315.050,235.600 314.868 C 235.600 314.685,236.094 314.280,236.697 313.968 C 237.300 313.655,238.155 313.027,238.597 312.570 C 239.039 312.114,239.715 311.624,240.100 311.483 C 240.485 311.341,240.800 311.061,240.800 310.861 C 240.800 310.661,241.327 310.279,241.971 310.012 C 242.615 309.745,243.240 309.273,243.359 308.963 C 243.478 308.654,243.785 308.400,244.042 308.400 C 244.298 308.400,244.890 307.995,245.357 307.500 C 245.824 307.005,246.700 306.345,247.303 306.032 C 247.906 305.720,248.400 305.315,248.400 305.132 C 248.400 304.950,248.664 304.800,248.986 304.800 C 249.308 304.800,249.765 304.440,250.000 304.000 C 250.235 303.560,250.615 303.200,250.843 303.200 C 251.071 303.200,251.485 302.975,251.763 302.700 C 252.041 302.425,252.774 301.840,253.392 301.400 C 254.010 300.960,254.799 300.285,255.147 299.900 C 255.494 299.515,256.008 299.200,256.289 299.200 C 256.570 299.200,256.800 299.050,256.800 298.868 C 256.800 298.685,257.294 298.280,257.897 297.968 C 258.500 297.655,259.376 296.995,259.843 296.500 C 260.310 296.005,260.890 295.600,261.132 295.600 C 261.374 295.600,261.765 295.240,262.000 294.800 C 262.235 294.360,262.694 294.000,263.018 294.000 C 263.342 294.000,263.916 293.640,264.293 293.200 C 264.670 292.760,265.126 292.400,265.308 292.400 C 265.490 292.400,266.055 291.950,266.565 291.400 C 267.075 290.850,267.651 290.400,267.846 290.400 C 268.190 290.399,269.945 289.058,271.234 287.813 C 271.582 287.476,272.077 287.200,272.334 287.200 C 272.590 287.200,272.800 287.050,272.800 286.868 C 272.800 286.685,273.294 286.280,273.897 285.968 C 274.500 285.655,275.376 284.995,275.843 284.500 C 276.310 284.005,276.890 283.600,277.132 283.600 C 277.374 283.600,277.758 283.252,277.986 282.827 C 278.213 282.402,278.769 281.937,279.220 281.794 C 279.671 281.650,280.617 281.003,281.320 280.355 C 282.024 279.707,282.870 278.935,283.200 278.639 C 283.530 278.343,284.188 277.982,284.663 277.835 C 285.138 277.689,285.627 277.306,285.750 276.985 C 285.874 276.663,286.169 276.400,286.407 276.400 C 286.644 276.400,287.255 275.950,287.765 275.400 C 288.275 274.850,288.895 274.400,289.142 274.400 C 289.390 274.400,289.818 274.040,290.093 273.600 C 290.368 273.160,290.821 272.800,291.100 272.800 C 291.379 272.800,291.916 272.440,292.293 272.000 C 292.670 271.560,293.208 271.200,293.489 271.200 C 293.770 271.200,294.000 271.016,294.000 270.791 C 294.000 270.567,294.489 270.162,295.086 269.891 C 295.683 269.621,296.718 268.900,297.386 268.289 C 298.054 267.677,298.870 266.935,299.200 266.639 C 299.530 266.343,300.188 265.982,300.663 265.835 C 301.138 265.689,301.627 265.306,301.750 264.985 C 301.874 264.663,302.206 264.392,302.487 264.383 C 302.769 264.374,303.442 263.834,303.981 263.183 C 304.521 262.532,305.202 262.000,305.494 262.000 C 305.786 262.000,306.126 261.737,306.250 261.415 C 306.373 261.094,306.826 260.719,307.257 260.582 C 307.688 260.445,308.617 259.811,309.320 259.173 C 311.567 257.137,311.905 256.884,312.724 256.624 C 313.165 256.484,313.627 256.106,313.750 255.785 C 313.874 255.463,314.161 255.200,314.387 255.200 C 314.614 255.200,315.160 254.840,315.600 254.400 C 316.040 253.960,316.640 253.600,316.932 253.600 C 317.225 253.600,317.698 253.164,317.984 252.630 C 318.269 252.097,318.929 251.554,319.451 251.423 C 319.973 251.292,320.400 251.004,320.400 250.782 C 320.400 250.561,320.850 250.209,321.400 250.000 C 321.950 249.791,322.400 249.447,322.400 249.237 C 322.400 249.026,322.769 248.737,323.220 248.594 C 323.672 248.450,324.617 247.811,325.320 247.173 C 327.560 245.143,327.905 244.884,328.696 244.633 C 329.123 244.497,329.711 243.940,330.004 243.393 C 330.296 242.847,330.775 242.400,331.068 242.400 C 331.360 242.400,331.960 242.040,332.400 241.600 C 332.840 241.160,333.340 240.800,333.511 240.800 C 333.939 240.800,335.275 239.200,335.123 238.869 C 335.055 238.721,322.580 238.710,307.400 238.844 M107.700 351.700 C 107.795 351.984,108.529 352.200,109.400 352.200 C 110.271 352.200,111.005 351.984,111.100 351.700 C 111.217 351.348,110.716 351.200,109.400 351.200 C 108.084 351.200,107.583 351.348,107.700 351.700 M115.798 351.603 C 115.661 351.824,115.815 352.108,116.141 352.233 C 117.065 352.587,118.921 352.254,119.102 351.700 C 119.305 351.084,116.175 350.992,115.798 351.603 M120.900 351.700 C 120.992 351.975,121.487 352.200,122.000 352.200 C 122.513 352.200,123.008 351.975,123.100 351.700 C 123.210 351.370,122.836 351.200,122.000 351.200 C 121.164 351.200,120.790 351.370,120.900 351.700 " stroke="none" fill="#2494f4" fill-rule="evenodd"></path><path id="path1" d="M58.566 226.800 C 58.566 230.870,58.625 232.535,58.698 230.500 C 58.771 228.465,58.771 225.135,58.698 223.100 C 58.625 221.065,58.566 222.730,58.566 226.800 M301.100 238.700 C 307.315 238.762,317.485 238.762,323.700 238.700 C 329.915 238.638,324.830 238.587,312.400 238.587 C 299.970 238.587,294.885 238.638,301.100 238.700 " stroke="none" fill="#2196f3" fill-rule="evenodd"></path></g></svg>
